<?xml version="1.0" encoding="UTF-8"?>
<svg width="1024" height="1024" viewBox="0 0 512 512" fill="none" xmlns="http://www.w3.org/2000/svg">
  <defs>
    <!-- Soft glow on metal ring -->
    <filter id="softGlow" x="-20%" y="-20%" width="140%" height="140%">
      <feGaussianBlur in="SourceAlpha" stdDeviation="2.2" result="b"/>
      <feMerge><feMergeNode in="b"/><feMergeNode in="SourceGraphic"/></feMerge>
    </filter>

    <!-- Tiny drop shadow for the axe emblem -->
    <filter id="tinyDrop" x="-50%" y="-50%" width="200%" height="200%">
      <feOffset dy="0.6" dx="0.4" in="SourceAlpha" result="o"/>
      <feGaussianBlur in="o" stdDeviation="0.8" result="g"/>
      <feColorMatrix type="matrix" values="0 0 0 0 0  0 0 0 0 0  0 0 0 0 0  0 0 0 .45 0" in="g" result="s"/>
      <feMerge><feMergeNode in="s"/><feMergeNode in="SourceGraphic"/></feMerge>
    </filter>

    <!-- Steel gradients for ring and axe head -->
    <linearGradient id="steelOuter" x1="0" y1="0" x2="0" y2="1">
      <stop offset="0%"  stop-color="#f4f6f8"/>
      <stop offset="40%" stop-color="#c7ccd1"/>
      <stop offset="100%" stop-color="#8a8f95"/>
    </linearGradient>
    <linearGradient id="steelInner" x1="0" y1="0" x2="0" y2="1">
      <stop offset="0%"  stop-color="#b7bdc3"/>
      <stop offset="60%" stop-color="#8f949a"/>
      <stop offset="100%" stop-color="#6d7279"/>
    </linearGradient>

    <!-- Axe head “brushed steel” -->
    <linearGradient id="headSteel" x1="0" y1="0" x2="1" y2="0">
      <stop offset="0%"  stop-color="#e8ebee"/>
      <stop offset="35%" stop-color="#c3c8cd"/>
      <stop offset="70%" stop-color="#9aa0a6"/>
      <stop offset="100%" stop-color="#7f858c"/>
    </linearGradient>
    <!-- Polished cutting edge -->
    <linearGradient id="edgeShine" x1="0" y1="0" x2="0" y2="1">
      <stop offset="0%" stop-color="#ffffff"/>
      <stop offset="100%" stop-color="#dfe5ea"/>
    </linearGradient>
    <!-- Shaft: warm ash wood -->
    <linearGradient id="wood" x1="0" y1="0" x2="0" y2="1">
      <stop offset="0%"  stop-color="#b78e5e"/>
      <stop offset="60%" stop-color="#926b3e"/>
      <stop offset="100%" stop-color="#7a5831"/>
    </linearGradient>

    <!-- Subtle highlight sweep across the ring -->
    <radialGradient id="lightSweep" cx="36%" cy="22%" r="80%">
      <stop offset="0%" stop-color="rgba(255,255,255,.55)"/>
      <stop offset="60%" stop-color="rgba(255,255,255,.04)"/>
      <stop offset="100%" stop-color="rgba(255,255,255,0)"/>
    </radialGradient>

    <!-- Tiny 3D axe (built to read even at 32px) -->
    <symbol id="axe3d" viewBox="0 0 32 32">
      <!-- handle -->
      <rect x="15" y="4.5" width="2" height="20.5" rx="1" fill="url(#wood)" stroke="#5d4326" stroke-width=".5"/>
      <!-- ferrule -->
      <rect x="14.6" y="6.8" width="2.8" height="2.4" rx=".6" fill="#6f7479" stroke="#4e5257" stroke-width=".4"/>
      <!-- head main mass -->
      <path d="M13 6.6 C9.8 9.0, 9.7 12.0, 12.9 14.4 L13.8 14.4 L13.8 6.6 Z"
            fill="url(#headSteel)" stroke="#6f7479" stroke-width=".6"/>
      <path d="M18.2 6.6 L18.2 14.4 L19.1 14.4 C22.3 12.0, 22.2 9.0, 19.0 6.6 Z"
            fill="url(#headSteel)" stroke="#6f7479" stroke-width=".6"/>
      <!-- cutting edges -->
      <path d="M12.8 7.0 C10.8 8.8, 10.8 11.6, 12.8 13.4" stroke="url(#edgeShine)" stroke-width=".8" />
      <path d="M19.2 7.0 C21.2 8.8, 21.2 11.6, 19.2 13.4" stroke="url(#edgeShine)" stroke-width=".8" />
      <!-- micro specular highlight on head -->
      <path d="M14.2 8.2 L17.8 8.2" stroke="white" stroke-opacity=".35" stroke-width=".6"/>
      <!-- tiny drop shadow to lift emblem -->
      <g filter="url(#tinyDrop)"></g>
    </symbol>

    <!-- Crossed axes emblem (very small) -->
    <symbol id="crossSmall" viewBox="0 0 32 32">
      <use href="#axe3d" transform="rotate(-35,16,16)"/>
      <use href="#axe3d" transform="rotate(35,16,16)"/>
    </symbol>
  </defs>

  <!-- OUTER RING -->
  <circle cx="256" cy="256" r="240"
          stroke="url(#steelOuter)" stroke-width="16" fill="none" filter="url(#softGlow)"/>

  <!-- INNER BEVEL -->
  <circle cx="256" cy="256" r="224"
          stroke="url(#steelInner)" stroke-width="6" fill="none" opacity=".95"/>

  <!-- Fine engraved hairlines -->
  <circle cx="256" cy="256" r="236" fill="none" stroke="url(#steelOuter)" stroke-width="0.6" opacity=".28"/>
  <circle cx="256" cy="256" r="232" fill="none" stroke="url(#steelInner)" stroke-width="1.0" opacity=".55"/>
  <circle cx="256" cy="256" r="229" fill="none" stroke="url(#steelInner)" stroke-width="0.8" opacity=".40"/>

  <!-- Light sweep -->
  <circle cx="256" cy="256" r="240" fill="url(#lightSweep)" opacity=".22"/>

  <!-- 12 SMALL, 3D CROSSED-AXE EMBLEMS (smaller than before) -->
  <g transform="translate(256,256)">
    <!-- scale down to ~50% and tuck closer to the rim -->
    <g transform="translate(0,-238) scale(.50)"><use href="#crossSmall"/></g>
    <g transform="rotate(30)  translate(0,-238) scale(.50)"><use href="#crossSmall"/></g>
    <g transform="rotate(60)  translate(0,-238) scale(.50)"><use href="#crossSmall"/></g>
    <g transform="rotate(90)  translate(0,-238) scale(.50)"><use href="#crossSmall"/></g>
    <g transform="rotate(120) translate(0,-238) scale(.50)"><use href="#crossSmall"/></g>
    <g transform="rotate(150) translate(0,-238) scale(.50)"><use href="#crossSmall"/></g>
    <g transform="rotate(180) translate(0,-238) scale(.50)"><use href="#crossSmall"/></g>
    <g transform="rotate(210) translate(0,-238) scale(.50)"><use href="#crossSmall"/></g>
    <g transform="rotate(240) translate(0,-238) scale(.50)"><use href="#crossSmall"/></g>
    <g transform="rotate(270) translate(0,-238) scale(.50)"><use href="#crossSmall"/></g>
    <g transform="rotate(300) translate(0,-238) scale(.50)"><use href="#crossSmall"/></g>
    <g transform="rotate(330) translate(0,-238) scale(.50)"><use href="#crossSmall"/></g>
  </g>

  <!-- Tiny runic ticks between emblems -->
  <g stroke="#d9dde1" stroke-width="2.2" stroke-linecap="round" opacity=".85">
    <g transform="translate(256,256)">
      <line x1="0" y1="-231" x2="0" y2="-238"/>
      <g transform="rotate(15)"><line x1="0" y1="-231" x2="0" y2="-238"/></g>
      <g transform="rotate(30)"><line x1="0" y1="-231" x2="0" y2="-238"/></g>
      <g transform="rotate(45)"><line x1="0" y1="-231" x2="0" y2="-238"/></g>
      <g transform="rotate(60)"><line x1="0" y1="-231" x2="0" y2="-238"/></g>
      <g transform="rotate(75)"><line x1="0" y1="-231" x2="0" y2="-238"/></g>
      <g transform="rotate(90)"><line x1="0" y1="-231" x2="0" y2="-238"/></g>
      <g transform="rotate(105)"><line x1="0" y1="-231" x2="0" y2="-238"/></g>
      <g transform="rotate(120)"><line x1="0" y1="-231" x2="0" y2="-238"/></g>
      <g transform="rotate(135)"><line x1="0" y1="-231" x2="0" y2="-238"/></g>
      <g transform="rotate(150)"><line x1="0" y1="-231" x2="0" y2="-238"/></g>
      <g transform="rotate(165)"><line x1="0" y1="-231" x2="0" y2="-238"/></g>
      <g transform="rotate(180)"><line x1="0" y1="-231" x2="0" y2="-238"/></g>
      <g transform="rotate(195)"><line x1="0" y1="-231" x2="0" y2="-238"/></g>
      <g transform="rotate(210)"><line x1="0" y1="-231" x2="0" y2="-238"/></g>
      <g transform="rotate(225)"><line x1="0" y1="-231" x2="0" y2="-238"/></g>
      <g transform="rotate(240)"><line x1="0" y1="-231" x2="0" y2="-238"/></g>
      <g transform="rotate(255)"><line x1="0" y1="-231" x2="0" y2="-238"/></g>
      <g transform="rotate(270)"><line x1="0" y1="-231" x2="0" y2="-238"/></g>
      <g transform="rotate(285)"><line x1="0" y1="-231" x2="0" y2="-238"/></g>
      <g transform="rotate(300)"><line x1="0" y1="-231" x2="0" y2="-238"/></g>
      <g transform="rotate(315)"><line x1="0" y1="-231" x2="0" y2="-238"/></g>
      <g transform="rotate(330)"><line x1="0" y1="-231" x2="0" y2="-238"/></g>
      <g transform="rotate(345)"><line x1="0" y1="-231" x2="0" y2="-238"/></g>
    </g>
  </g>

  <!-- Transparent center so the avatar shows through -->
  <circle cx="256" cy="256" r="215" fill="transparent"/>
</svg>
